<svg width="94" height="117" viewBox="0 0 94 117" fill="none" xmlns="http://www.w3.org/2000/svg">
<path d="M56.1236 47.0226C56.1236 52.0927 51.9865 56.218 46.8643 56.218C41.7421 56.218 37.605 52.0927 37.605 47.0226C37.605 41.9525 41.7421 37.8271 46.8643 37.8271C51.9865 37.8271 56.1236 41.9525 56.1236 47.0226Z" stroke="#A3BB90" stroke-width="3"/>
<path d="M45.4696 112.721L45.4695 112.721C35.4102 103.591 24.4369 92.4739 15.9897 80.9308C7.50857 69.3412 1.74072 57.5452 1.74072 47.0208C1.74072 35.1295 6.49261 23.7235 14.954 15.3124C23.4156 6.90093 34.8939 2.17383 46.8643 2.17383C52.7913 2.17383 58.66 3.3343 64.1353 5.58879C69.6106 7.84327 74.585 11.1475 78.7747 15.3124C82.9644 19.4772 86.2874 24.4211 88.5544 29.8615C90.8213 35.3019 91.988 41.1326 91.988 47.0208C91.988 57.8669 86.7562 68.8863 78.585 79.9683C70.4254 91.0347 59.4736 101.981 48.3017 112.677L48.2977 112.681L46.905 114.024L45.4696 112.721ZM36.0718 63.0918C39.2672 65.2142 43.023 66.3465 46.8643 66.3465C52.0152 66.3465 56.9569 64.3125 60.6018 60.6892C64.247 57.0657 66.2965 52.1492 66.2965 47.0208C66.2965 43.1965 65.1557 39.4588 63.0193 36.2805C60.883 33.1023 57.8475 30.6265 54.2978 29.1648C50.7481 27.7032 46.8427 27.321 43.075 28.066C39.3072 28.811 35.8451 30.6502 33.1269 33.3523C30.4086 36.0545 28.5564 39.4982 27.8059 43.2488C27.0554 46.9994 27.4407 50.8869 28.9126 54.4193C30.3845 57.9517 32.8764 60.9693 36.0718 63.0918Z" stroke="#ECE5CD" stroke-width="3"/>
</svg>
