<svg width="14" height="21" viewBox="0 0 14 21" fill="none" xmlns="http://www.w3.org/2000/svg">
<path d="M11.4048 0.650391H2.93507C2.29327 0.650391 1.67774 0.905346 1.22392 1.35917C0.770092 1.813 0.515137 2.42852 0.515137 3.07033V17.5899C0.515137 18.2318 0.770092 18.8473 1.22392 19.3011C1.67774 19.7549 2.29327 20.0099 2.93507 20.0099H11.4048C12.0467 20.0099 12.6622 19.7549 13.116 19.3011C13.5698 18.8473 13.8248 18.2318 13.8248 17.5899V3.07033C13.8248 2.42852 13.5698 1.813 13.116 1.35917C12.6622 0.905346 12.0467 0.650391 11.4048 0.650391ZM12.6148 17.5899C12.6148 17.9108 12.4873 18.2186 12.2604 18.4455C12.0335 18.6724 11.7258 18.7999 11.4048 18.7999H2.93507C2.61417 18.7999 2.30641 18.6724 2.0795 18.4455C1.85258 18.2186 1.7251 17.9108 1.7251 17.5899V3.07033C1.7251 2.74942 1.85258 2.44166 2.0795 2.21475C2.30641 1.98784 2.61417 1.86036 2.93507 1.86036H11.4048C11.7258 1.86036 12.0335 1.98784 12.2604 2.21475C12.4873 2.44166 12.6148 2.74942 12.6148 3.07033V17.5899Z" fill="black"/>
<path d="M11.4048 4.28027H2.93506C2.77461 4.28027 2.62074 4.34401 2.50728 4.45747C2.39383 4.57093 2.33008 4.72481 2.33008 4.88526C2.33008 5.04571 2.39383 5.19959 2.50728 5.31305C2.62074 5.4265 2.77461 5.49024 2.93506 5.49024H11.4048C11.5653 5.49024 11.7192 5.4265 11.8326 5.31305C11.9461 5.19959 12.0098 5.04571 12.0098 4.88526C12.0098 4.72481 11.9461 4.57093 11.8326 4.45747C11.7192 4.34401 11.5653 4.28027 11.4048 4.28027Z" fill="black"/>
<path d="M11.4048 14.5645H2.93506C2.77461 14.5645 2.62074 14.6282 2.50728 14.7416C2.39383 14.8551 2.33008 15.009 2.33008 15.1694C2.33008 15.3299 2.39383 15.4838 2.50728 15.5972C2.62074 15.7107 2.77461 15.7744 2.93506 15.7744H11.4048C11.5653 15.7744 11.7192 15.7107 11.8326 15.5972C11.9461 15.4838 12.0098 15.3299 12.0098 15.1694C12.0098 15.009 11.9461 14.8551 11.8326 14.7416C11.7192 14.6282 11.5653 14.5645 11.4048 14.5645Z" fill="black"/>
<path d="M5.95996 3.67579H8.3799C8.54035 3.67579 8.69422 3.61205 8.80768 3.49859C8.92114 3.38514 8.98489 3.23126 8.98489 3.0708C8.98489 2.91035 8.92114 2.75647 8.80768 2.64302C8.69422 2.52956 8.54035 2.46582 8.3799 2.46582H5.95996C5.79951 2.46582 5.64564 2.52956 5.53218 2.64302C5.41873 2.75647 5.35498 2.91035 5.35498 3.0708C5.35498 3.23126 5.41873 3.38514 5.53218 3.49859C5.64564 3.61205 5.79951 3.67579 5.95996 3.67579Z" fill="black"/>
<path d="M7.16968 18.1948C7.67087 18.1948 8.07716 17.7885 8.07716 17.2874C8.07716 16.7862 7.67087 16.3799 7.16968 16.3799C6.6685 16.3799 6.26221 16.7862 6.26221 17.2874C6.26221 17.7885 6.6685 18.1948 7.16968 18.1948Z" fill="black"/>
</svg>
